<svg width="149" height="88" viewBox="0 0 149 88" fill="none" xmlns="http://www.w3.org/2000/svg">
<path fill-rule="evenodd" clip-rule="evenodd" d="M87.2143 18.5952C77.0807 18.3511 66.9533 17.9148 56.8333 17.2857C55.8475 17.182 54.9749 16.9201 54.2143 16.5C60.5005 7.89641 68.969 2.83275 79.619 1.30951C85.5805 1.34565 89.9454 3.9647 92.7143 9.16665C93.2496 13.6243 91.4163 16.7671 87.2143 18.5952Z" fill="#339441"/>
<path fill-rule="evenodd" clip-rule="evenodd" d="M10.2143 0.261871C16.6053 -0.255653 22.3672 1.40273 27.5 5.23806C34.6369 10.8895 40.4863 17.6115 45.0476 25.4047C45.397 26.103 45.397 26.8017 45.0476 27.5C41.8016 34.8265 40.2301 42.5092 40.3333 50.5476C31.9492 40.6361 22.0843 32.517 10.7381 26.1905C7.72195 24.2241 5.01558 21.8669 2.61905 19.119C0.423706 16.2161 -0.100104 13.0732 1.04762 9.69046C2.13903 7.68113 3.36128 5.76032 4.71428 3.92854C6.44678 2.49906 8.28012 1.27701 10.2143 0.261871Z" fill="#304162"/>
<path fill-rule="evenodd" clip-rule="evenodd" d="M54.2143 16.5C54.9749 16.9201 55.8475 17.182 56.8333 17.2857C66.9533 17.9148 77.0807 18.3511 87.2143 18.5952C82.7572 21.6108 78.0429 24.2299 73.0714 26.4524C64.8288 26.0559 56.6222 25.532 48.4524 24.881C49.5985 21.5364 51.5193 18.743 54.2143 16.5Z" fill="#308D3F"/>
<path fill-rule="evenodd" clip-rule="evenodd" d="M48.4524 24.881C56.6222 25.5321 64.8288 26.0559 73.0714 26.4524C65.3578 30.6649 58.3739 35.903 52.1191 42.1667C48.9526 42.2699 45.8098 42.0949 42.6905 41.6429C43.372 35.5814 45.2928 29.9939 48.4524 24.881Z" fill="#2D853E"/>
<path fill-rule="evenodd" clip-rule="evenodd" d="M42.6905 41.6429C45.8098 42.0949 48.9526 42.2699 52.119 42.1667C47.7772 47.5352 44.9837 53.6465 43.7381 60.5C42.1897 54.2054 41.8409 47.9197 42.6905 41.6429Z" fill="#2F7C3F"/>
<path fill-rule="evenodd" clip-rule="evenodd" d="M52.6429 43.7381C53.2976 43.7784 53.734 44.1278 53.9524 44.7857C57.3074 54.1677 58.1801 63.7707 56.5714 73.5952C53.8937 82.5566 47.8699 87.1839 38.5 87.4762C45.4803 83.4706 48.6231 77.3593 47.9286 69.1429C47.4121 64.9922 46.8008 60.8892 46.0952 56.8333C47.7395 52.1484 49.9222 47.783 52.6429 43.7381Z" fill="#283854"/>
<path d="M79.3257 65.759V68.509C79.3257 72.0777 78.507 74.889 76.869 76.9424C75.2311 78.9711 72.8844 79.9857 69.829 79.9857C66.749 79.9857 64.3903 78.9711 62.7524 76.9424C61.139 74.889 60.3324 72.0777 60.3324 68.509V65.759C60.3324 62.2144 61.139 59.4277 62.7524 57.399C64.3903 55.3457 66.749 54.319 69.829 54.319C72.8844 54.319 75.2311 55.3457 76.869 57.399C78.507 59.4277 79.3257 62.2144 79.3257 65.759ZM75.8424 63.9257C75.8424 60.8703 75.329 58.707 74.3024 57.4357C73.3003 56.1403 71.809 55.4924 69.829 55.4924C67.849 55.4924 66.3457 56.1403 65.319 57.4357C64.317 58.707 63.8157 60.8703 63.8157 63.9257V70.3424C63.8157 73.3977 64.317 75.5736 65.319 76.869C66.3457 78.1644 67.849 78.8124 69.829 78.8124C71.809 78.8124 73.3003 78.1644 74.3024 76.869C75.329 75.5736 75.8424 73.3977 75.8424 70.3424V63.9257ZM98.6129 55.6757V54.6857H105.616V55.6757L103.6 55.859C103.208 55.9077 102.976 56.0057 102.903 56.1524C102.83 56.299 102.793 56.8003 102.793 57.6557V71.149C102.793 73.9357 102.145 76.1111 100.85 77.6757C99.5783 79.2157 97.6229 79.9857 94.9829 79.9857C92.0983 79.9857 89.8862 79.1424 88.3462 77.4557C86.8308 75.769 86.0729 73.447 86.0729 70.489V57.6557C86.0729 56.8003 86.0362 56.299 85.9629 56.1524C85.8896 56.0057 85.6575 55.9077 85.2662 55.859L83.2496 55.6757V54.6857H92.0862V55.6757L90.0696 55.859C89.6783 55.9077 89.4462 56.0057 89.3729 56.1524C89.2996 56.299 89.2629 56.8003 89.2629 57.6557V71.039C89.2629 73.6544 89.7516 75.5977 90.7296 76.869C91.7316 78.1403 93.2475 78.7757 95.2762 78.7757C97.3296 78.7757 98.8696 78.1277 99.8962 76.8324C100.923 75.537 101.436 73.6544 101.436 71.1857V57.6557C101.436 56.8003 101.4 56.299 101.326 56.1524C101.253 56.0057 101.021 55.9077 100.63 55.859L98.6129 55.6757ZM116.754 78.8124C118.392 78.8124 119.712 78.409 120.714 77.6024C121.741 76.7957 122.254 75.6103 122.254 74.0457C122.254 72.799 121.875 71.7603 121.117 70.929C120.359 70.0736 119.039 69.389 117.157 68.8757L114.627 68.1424C112.769 67.629 111.352 66.7611 110.374 65.539C109.396 64.317 108.907 62.8257 108.907 61.0657C108.907 59.8924 109.176 58.7924 109.714 57.7657C110.276 56.739 111.119 55.9077 112.244 55.2724C113.393 54.637 114.847 54.319 116.607 54.319C118.563 54.319 120.139 54.6857 121.337 55.419C122.535 56.1277 123.366 57.057 123.831 58.2057C124.295 59.3544 124.405 60.589 124.161 61.909L121.081 62.569C121.399 60.2957 121.166 58.5477 120.384 57.3257C119.626 56.1037 118.306 55.4924 116.424 55.4924C114.933 55.4924 113.759 55.8957 112.904 56.7024C112.049 57.4844 111.621 58.6337 111.621 60.149C111.621 61.347 111.963 62.3736 112.647 63.229C113.332 64.0603 114.542 64.7203 116.277 65.209L118.807 65.9424C122.889 67.067 124.931 69.4503 124.931 73.0924C124.931 74.3877 124.625 75.5611 124.014 76.6124C123.427 77.639 122.523 78.4577 121.301 79.069C120.103 79.6803 118.587 79.9857 116.754 79.9857C115.483 79.9857 114.261 79.7903 113.087 79.399C111.939 79.0077 110.949 78.3357 110.117 77.3824C109.311 76.429 108.773 75.109 108.504 73.4224L110.704 72.689C110.826 74.3024 111.181 75.549 111.767 76.429C112.354 77.309 113.087 77.9324 113.967 78.299C114.847 78.6411 115.776 78.8124 116.754 78.8124ZM145.312 73.6424H146.265V79.619H128.702V78.6657L130.719 78.4457C131.11 78.397 131.342 78.299 131.415 78.1524C131.489 78.0057 131.525 77.5044 131.525 76.649V57.6557C131.525 56.8003 131.489 56.299 131.415 56.1524C131.342 56.0057 131.11 55.9077 130.719 55.859L128.702 55.6757V54.6857H145.789V60.6624H144.872L143.809 56.8124C143.735 56.519 143.65 56.3111 143.552 56.189C143.479 56.0424 143.32 55.957 143.075 55.9324C142.831 55.8837 142.415 55.859 141.829 55.859H134.715V66.4557H139.629C140.215 66.4557 140.631 66.4436 140.875 66.419C141.12 66.3703 141.279 66.2844 141.352 66.1624C141.45 66.0157 141.535 65.7957 141.609 65.5024L142.305 62.7524H143.259V71.3324H142.305L141.609 68.5824C141.535 68.289 141.45 68.0811 141.352 67.959C141.279 67.8124 141.12 67.727 140.875 67.7024C140.631 67.6536 140.215 67.629 139.629 67.629H134.715V78.4457H142.269C142.855 78.4457 143.271 78.4336 143.515 78.409C143.76 78.3603 143.919 78.2744 143.992 78.1524C144.09 78.0057 144.175 77.7857 144.249 77.4924L145.312 73.6424Z" fill="#304162"/>
</svg>
