<svg width="30" height="45" viewBox="0 0 30 45" fill="red" xmlns="http://www.w3.org/2000/svg" xmlns:xlink="http://www.w3.org/1999/xlink">
<path fill-rule="evenodd" clip-rule="evenodd" d="M14.6975 29.7141C14.6974 29.7141 14.6974 29.7141 14.6974 29.7141H14.6972V44.9992C14.0478 44.9992 13.5214 44.4728 13.5214 43.8234C13.5214 35.6264 8.9357 30.6042 5.50233 26.8439L5.50229 26.8439C4.51326 25.7607 3.61985 24.7822 2.95922 23.8628C1.10155 21.4017 0 18.3378 0 15.0167C0 6.89957 6.58024 0.319336 14.6974 0.319336C22.8145 0.319336 29.3947 6.89957 29.3947 15.0167C29.3947 18.3389 28.2925 21.4036 26.4337 23.8652C25.7733 24.7839 24.8805 25.7617 23.8923 26.8439C20.459 30.6042 15.8732 35.6264 15.8732 43.8234C15.8732 44.4728 15.3468 44.9992 14.6975 44.9992V29.7141Z" />
<circle cx="14.8234" cy="15.1437" r="13.1535" fill="url(#pattern0)"/>
<defs>
<pattern id="pattern0" patternContentUnits="objectBoundingBox" width="1" height="1">
<use xlink:href="#image0_976_2292" transform="translate(0 -0.254884) scale(0.000368596)"/>
</pattern>
<image id="image0_976_2292" width="4096" height="4096" href=""/>
</defs>
</svg>